<svg width="1200" height="800" viewBox="0 0 1200 800" fill="none" xmlns="http://www.w3.org/2000/svg">
<g clip-path="url(#clip0)">
<path d="M283.784 1007.86C87.7731 961.617 -155.539 775.202 -52.8193 605.247C49.9005 435.293 97.3529 685.288 326.876 688.668C556.399 692.049 741.384 749.816 739.726 834.308C739.013 870.644 703.978 903.51 645.987 928.906C563.193 981.975 404.77 1036.4 283.784 1007.86Z" fill="#B30707"/>
<circle cx="1042" cy="799" r="10" transform="rotate(-90 1042 799)" fill="#B60F0F" fill-opacity="0.63"/>
<circle cx="1083" cy="799" r="10" transform="rotate(-90 1083 799)" fill="#B60F0F" fill-opacity="0.63"/>
<circle cx="1124" cy="799" r="10" transform="rotate(-90 1124 799)" fill="#B60F0F" fill-opacity="0.63"/>
<circle cx="1165" cy="799" r="10" transform="rotate(-90 1165 799)" fill="#B60F0F" fill-opacity="0.63"/>
<circle cx="1206" cy="799" r="10" transform="rotate(-90 1206 799)" fill="#B60F0F" fill-opacity="0.63"/>
<circle cx="1042" cy="743" r="10" transform="rotate(-90 1042 743)" fill="#B60F0F" fill-opacity="0.63"/>
<circle cx="1083" cy="743" r="10" transform="rotate(-90 1083 743)" fill="#B60F0F" fill-opacity="0.63"/>
<circle cx="1124" cy="743" r="10" transform="rotate(-90 1124 743)" fill="#B60F0F" fill-opacity="0.63"/>
<circle cx="1165" cy="743" r="10" transform="rotate(-90 1165 743)" fill="#B60F0F" fill-opacity="0.63"/>
<circle cx="1206" cy="743" r="10" transform="rotate(-90 1206 743)" fill="#B60F0F" fill-opacity="0.63"/>
<circle cx="1042" cy="687" r="10" transform="rotate(-90 1042 687)" fill="#B60F0F" fill-opacity="0.63"/>
<circle cx="1083" cy="687" r="10" transform="rotate(-90 1083 687)" fill="#B60F0F" fill-opacity="0.63"/>
<circle cx="1124" cy="687" r="10" transform="rotate(-90 1124 687)" fill="#B60F0F" fill-opacity="0.63"/>
<circle cx="1165" cy="687" r="10" transform="rotate(-90 1165 687)" fill="#B60F0F" fill-opacity="0.63"/>
<circle cx="1206" cy="687" r="10" transform="rotate(-90 1206 687)" fill="#B60F0F" fill-opacity="0.63"/>
<circle cx="1042" cy="631" r="10" transform="rotate(-90 1042 631)" fill="#B60F0F" fill-opacity="0.63"/>
<circle cx="1083" cy="631" r="10" transform="rotate(-90 1083 631)" fill="#B60F0F" fill-opacity="0.63"/>
<circle cx="1124" cy="631" r="10" transform="rotate(-90 1124 631)" fill="#B60F0F" fill-opacity="0.63"/>
<circle cx="1165" cy="631" r="10" transform="rotate(-90 1165 631)" fill="#B60F0F" fill-opacity="0.63"/>
<circle cx="1206" cy="631" r="10" transform="rotate(-90 1206 631)" fill="#B60F0F" fill-opacity="0.63"/>
<circle cx="1042" cy="575" r="10" transform="rotate(-90 1042 575)" fill="#B60F0F" fill-opacity="0.63"/>
<circle cx="1083" cy="575" r="10" transform="rotate(-90 1083 575)" fill="#B60F0F" fill-opacity="0.63"/>
<circle cx="1124" cy="575" r="10" transform="rotate(-90 1124 575)" fill="#B60F0F" fill-opacity="0.63"/>
<circle cx="1165" cy="575" r="10" transform="rotate(-90 1165 575)" fill="#B60F0F" fill-opacity="0.63"/>
<circle cx="1206" cy="575" r="10" transform="rotate(-90 1206 575)" fill="#B60F0F" fill-opacity="0.63"/>
<circle cx="1042" cy="519" r="10" transform="rotate(-90 1042 519)" fill="#B60F0F" fill-opacity="0.63"/>
<circle cx="1083" cy="519" r="10" transform="rotate(-90 1083 519)" fill="#B60F0F" fill-opacity="0.63"/>
<circle cx="1124" cy="519" r="10" transform="rotate(-90 1124 519)" fill="#B60F0F" fill-opacity="0.63"/>
<circle cx="1165" cy="519" r="10" transform="rotate(-90 1165 519)" fill="#B60F0F" fill-opacity="0.63"/>
<circle cx="1206" cy="519" r="10" transform="rotate(-90 1206 519)" fill="#B60F0F" fill-opacity="0.63"/>
</g>
<defs>
<clipPath id="clip0">
<rect width="1200" height="800" fill="white"/>
</clipPath>
</defs>
</svg>
