<svg xmlns="http://www.w3.org/2000/svg" width="544" height="605" viewBox="0 0 544 605">
  <defs>
    <style>
      .cls-1 {
        fill: #ed5565;
      }
    </style>
  </defs>
  <g id="Group_9" data-name="Group 9" transform="translate(-185 -318)">
    <g id="Group_7" data-name="Group 7">
      <g id="Group_3" data-name="Group 3">
        <g id="Group_2" data-name="Group 2">
          <circle id="Ellipse_1" data-name="Ellipse 1" class="cls-1" cx="10" cy="10" r="10" transform="translate(185 318)"/>
          <circle id="Ellipse_11" data-name="Ellipse 11" class="cls-1" cx="10" cy="10" r="10" transform="translate(185 358)"/>
          <circle id="Ellipse_17" data-name="Ellipse 17" class="cls-1" cx="10" cy="10" r="10" transform="translate(185 398)"/>
          <circle id="Ellipse_5" data-name="Ellipse 5" class="cls-1" cx="10" cy="10" r="10" transform="translate(331 318)"/>
          <circle id="Ellipse_10" data-name="Ellipse 10" class="cls-1" cx="10" cy="10" r="10" transform="translate(331 358)"/>
          <circle id="Ellipse_16" data-name="Ellipse 16" class="cls-1" cx="10" cy="10" r="10" transform="translate(331 398)"/>
          <circle id="Ellipse_2" data-name="Ellipse 2" class="cls-1" cx="10" cy="10" r="10" transform="translate(233 318)"/>
          <circle id="Ellipse_9" data-name="Ellipse 9" class="cls-1" cx="10" cy="10" r="10" transform="translate(233 358)"/>
          <circle id="Ellipse_15" data-name="Ellipse 15" class="cls-1" cx="10" cy="10" r="10" transform="translate(233 398)"/>
          <circle id="Ellipse_4" data-name="Ellipse 4" class="cls-1" cx="10" cy="10" r="10" transform="translate(379 318)"/>
          <circle id="Ellipse_8" data-name="Ellipse 8" class="cls-1" cx="10" cy="10" r="10" transform="translate(379 358)"/>
          <circle id="Ellipse_14" data-name="Ellipse 14" class="cls-1" cx="10" cy="10" r="10" transform="translate(379 398)"/>
          <circle id="Ellipse_3" data-name="Ellipse 3" class="cls-1" cx="10" cy="10" r="10" transform="translate(282 318)"/>
          <circle id="Ellipse_7" data-name="Ellipse 7" class="cls-1" cx="10" cy="10" r="10" transform="translate(282 358)"/>
          <circle id="Ellipse_13" data-name="Ellipse 13" class="cls-1" cx="10" cy="10" r="10" transform="translate(282 398)"/>
          <circle id="Ellipse_6" data-name="Ellipse 6" class="cls-1" cx="10" cy="10" r="10" transform="translate(428 318)"/>
          <circle id="Ellipse_12" data-name="Ellipse 12" class="cls-1" cx="10" cy="10" r="10" transform="translate(428 358)"/>
          <circle id="Ellipse_18" data-name="Ellipse 18" class="cls-1" cx="10" cy="10" r="10" transform="translate(428 398)"/>
        </g>
        <g id="Group_1" data-name="Group 1">
          <circle id="Ellipse_23" data-name="Ellipse 23" class="cls-1" cx="10" cy="10" r="10" transform="translate(185 438)"/>
          <circle id="Ellipse_22" data-name="Ellipse 22" class="cls-1" cx="10" cy="10" r="10" transform="translate(331 438)"/>
          <circle id="Ellipse_21" data-name="Ellipse 21" class="cls-1" cx="10" cy="10" r="10" transform="translate(233 438)"/>
          <circle id="Ellipse_20" data-name="Ellipse 20" class="cls-1" cx="10" cy="10" r="10" transform="translate(379 438)"/>
          <circle id="Ellipse_19" data-name="Ellipse 19" class="cls-1" cx="10" cy="10" r="10" transform="translate(282 438)"/>
          <circle id="Ellipse_24" data-name="Ellipse 24" class="cls-1" cx="10" cy="10" r="10" transform="translate(428 438)"/>
        </g>
      </g>
      <g id="Group_5" data-name="Group 5" transform="translate(281)">
        <g id="Group_2-2" data-name="Group 2">
          <circle id="Ellipse_1-2" data-name="Ellipse 1" class="cls-1" cx="10" cy="10" r="10" transform="translate(185 318)"/>
          <circle id="Ellipse_11-2" data-name="Ellipse 11" class="cls-1" cx="10" cy="10" r="10" transform="translate(185 358)"/>
          <circle id="Ellipse_17-2" data-name="Ellipse 17" class="cls-1" cx="10" cy="10" r="10" transform="translate(185 398)"/>
          <circle id="Ellipse_5-2" data-name="Ellipse 5" class="cls-1" cx="10" cy="10" r="10" transform="translate(331 318)"/>
          <circle id="Ellipse_10-2" data-name="Ellipse 10" class="cls-1" cx="10" cy="10" r="10" transform="translate(331 358)"/>
          <circle id="Ellipse_16-2" data-name="Ellipse 16" class="cls-1" cx="10" cy="10" r="10" transform="translate(331 398)"/>
          <circle id="Ellipse_2-2" data-name="Ellipse 2" class="cls-1" cx="10" cy="10" r="10" transform="translate(233 318)"/>
          <circle id="Ellipse_9-2" data-name="Ellipse 9" class="cls-1" cx="10" cy="10" r="10" transform="translate(233 358)"/>
          <circle id="Ellipse_15-2" data-name="Ellipse 15" class="cls-1" cx="10" cy="10" r="10" transform="translate(233 398)"/>
          <circle id="Ellipse_4-2" data-name="Ellipse 4" class="cls-1" cx="10" cy="10" r="10" transform="translate(379 318)"/>
          <circle id="Ellipse_8-2" data-name="Ellipse 8" class="cls-1" cx="10" cy="10" r="10" transform="translate(379 358)"/>
          <circle id="Ellipse_14-2" data-name="Ellipse 14" class="cls-1" cx="10" cy="10" r="10" transform="translate(379 398)"/>
          <circle id="Ellipse_3-2" data-name="Ellipse 3" class="cls-1" cx="10" cy="10" r="10" transform="translate(282 318)"/>
          <circle id="Ellipse_7-2" data-name="Ellipse 7" class="cls-1" cx="10" cy="10" r="10" transform="translate(282 358)"/>
          <circle id="Ellipse_13-2" data-name="Ellipse 13" class="cls-1" cx="10" cy="10" r="10" transform="translate(282 398)"/>
          <circle id="Ellipse_6-2" data-name="Ellipse 6" class="cls-1" cx="10" cy="10" r="10" transform="translate(428 318)"/>
          <circle id="Ellipse_12-2" data-name="Ellipse 12" class="cls-1" cx="10" cy="10" r="10" transform="translate(428 358)"/>
          <circle id="Ellipse_18-2" data-name="Ellipse 18" class="cls-1" cx="10" cy="10" r="10" transform="translate(428 398)"/>
        </g>
        <g id="Group_1-2" data-name="Group 1">
          <circle id="Ellipse_23-2" data-name="Ellipse 23" class="cls-1" cx="10" cy="10" r="10" transform="translate(185 438)"/>
          <circle id="Ellipse_22-2" data-name="Ellipse 22" class="cls-1" cx="10" cy="10" r="10" transform="translate(331 438)"/>
          <circle id="Ellipse_21-2" data-name="Ellipse 21" class="cls-1" cx="10" cy="10" r="10" transform="translate(233 438)"/>
          <circle id="Ellipse_20-2" data-name="Ellipse 20" class="cls-1" cx="10" cy="10" r="10" transform="translate(379 438)"/>
          <circle id="Ellipse_19-2" data-name="Ellipse 19" class="cls-1" cx="10" cy="10" r="10" transform="translate(282 438)"/>
          <circle id="Ellipse_24-2" data-name="Ellipse 24" class="cls-1" cx="10" cy="10" r="10" transform="translate(428 438)"/>
        </g>
      </g>
      <g id="Group_4" data-name="Group 4" transform="translate(281 152)">
        <g id="Group_2-3" data-name="Group 2">
          <circle id="Ellipse_1-3" data-name="Ellipse 1" class="cls-1" cx="10" cy="10" r="10" transform="translate(185 318)"/>
          <circle id="Ellipse_11-3" data-name="Ellipse 11" class="cls-1" cx="10" cy="10" r="10" transform="translate(185 358)"/>
          <circle id="Ellipse_17-3" data-name="Ellipse 17" class="cls-1" cx="10" cy="10" r="10" transform="translate(185 398)"/>
          <circle id="Ellipse_5-3" data-name="Ellipse 5" class="cls-1" cx="10" cy="10" r="10" transform="translate(331 318)"/>
          <circle id="Ellipse_10-3" data-name="Ellipse 10" class="cls-1" cx="10" cy="10" r="10" transform="translate(331 358)"/>
          <circle id="Ellipse_16-3" data-name="Ellipse 16" class="cls-1" cx="10" cy="10" r="10" transform="translate(331 398)"/>
          <circle id="Ellipse_2-3" data-name="Ellipse 2" class="cls-1" cx="10" cy="10" r="10" transform="translate(233 318)"/>
          <circle id="Ellipse_9-3" data-name="Ellipse 9" class="cls-1" cx="10" cy="10" r="10" transform="translate(233 358)"/>
          <circle id="Ellipse_15-3" data-name="Ellipse 15" class="cls-1" cx="10" cy="10" r="10" transform="translate(233 398)"/>
          <circle id="Ellipse_4-3" data-name="Ellipse 4" class="cls-1" cx="10" cy="10" r="10" transform="translate(379 318)"/>
          <circle id="Ellipse_8-3" data-name="Ellipse 8" class="cls-1" cx="10" cy="10" r="10" transform="translate(379 358)"/>
          <circle id="Ellipse_14-3" data-name="Ellipse 14" class="cls-1" cx="10" cy="10" r="10" transform="translate(379 398)"/>
          <circle id="Ellipse_3-3" data-name="Ellipse 3" class="cls-1" cx="10" cy="10" r="10" transform="translate(282 318)"/>
          <circle id="Ellipse_7-3" data-name="Ellipse 7" class="cls-1" cx="10" cy="10" r="10" transform="translate(282 358)"/>
          <circle id="Ellipse_13-3" data-name="Ellipse 13" class="cls-1" cx="10" cy="10" r="10" transform="translate(282 398)"/>
          <circle id="Ellipse_6-3" data-name="Ellipse 6" class="cls-1" cx="10" cy="10" r="10" transform="translate(428 318)"/>
          <circle id="Ellipse_12-3" data-name="Ellipse 12" class="cls-1" cx="10" cy="10" r="10" transform="translate(428 358)"/>
          <circle id="Ellipse_18-3" data-name="Ellipse 18" class="cls-1" cx="10" cy="10" r="10" transform="translate(428 398)"/>
        </g>
        <g id="Group_1-3" data-name="Group 1">
          <circle id="Ellipse_23-3" data-name="Ellipse 23" class="cls-1" cx="10" cy="10" r="10" transform="translate(185 438)"/>
          <circle id="Ellipse_22-3" data-name="Ellipse 22" class="cls-1" cx="10" cy="10" r="10" transform="translate(331 438)"/>
          <circle id="Ellipse_21-3" data-name="Ellipse 21" class="cls-1" cx="10" cy="10" r="10" transform="translate(233 438)"/>
          <circle id="Ellipse_20-3" data-name="Ellipse 20" class="cls-1" cx="10" cy="10" r="10" transform="translate(379 438)"/>
          <circle id="Ellipse_19-3" data-name="Ellipse 19" class="cls-1" cx="10" cy="10" r="10" transform="translate(282 438)"/>
          <circle id="Ellipse_24-3" data-name="Ellipse 24" class="cls-1" cx="10" cy="10" r="10" transform="translate(428 438)"/>
        </g>
      </g>
      <g id="Group_6" data-name="Group 6" transform="translate(0 152)">
        <g id="Group_2-4" data-name="Group 2">
          <circle id="Ellipse_1-4" data-name="Ellipse 1" class="cls-1" cx="10" cy="10" r="10" transform="translate(185 318)"/>
          <circle id="Ellipse_11-4" data-name="Ellipse 11" class="cls-1" cx="10" cy="10" r="10" transform="translate(185 358)"/>
          <circle id="Ellipse_17-4" data-name="Ellipse 17" class="cls-1" cx="10" cy="10" r="10" transform="translate(185 398)"/>
          <circle id="Ellipse_5-4" data-name="Ellipse 5" class="cls-1" cx="10" cy="10" r="10" transform="translate(331 318)"/>
          <circle id="Ellipse_10-4" data-name="Ellipse 10" class="cls-1" cx="10" cy="10" r="10" transform="translate(331 358)"/>
          <circle id="Ellipse_16-4" data-name="Ellipse 16" class="cls-1" cx="10" cy="10" r="10" transform="translate(331 398)"/>
          <circle id="Ellipse_2-4" data-name="Ellipse 2" class="cls-1" cx="10" cy="10" r="10" transform="translate(233 318)"/>
          <circle id="Ellipse_9-4" data-name="Ellipse 9" class="cls-1" cx="10" cy="10" r="10" transform="translate(233 358)"/>
          <circle id="Ellipse_15-4" data-name="Ellipse 15" class="cls-1" cx="10" cy="10" r="10" transform="translate(233 398)"/>
          <circle id="Ellipse_4-4" data-name="Ellipse 4" class="cls-1" cx="10" cy="10" r="10" transform="translate(379 318)"/>
          <circle id="Ellipse_8-4" data-name="Ellipse 8" class="cls-1" cx="10" cy="10" r="10" transform="translate(379 358)"/>
          <circle id="Ellipse_14-4" data-name="Ellipse 14" class="cls-1" cx="10" cy="10" r="10" transform="translate(379 398)"/>
          <circle id="Ellipse_3-4" data-name="Ellipse 3" class="cls-1" cx="10" cy="10" r="10" transform="translate(282 318)"/>
          <circle id="Ellipse_7-4" data-name="Ellipse 7" class="cls-1" cx="10" cy="10" r="10" transform="translate(282 358)"/>
          <circle id="Ellipse_13-4" data-name="Ellipse 13" class="cls-1" cx="10" cy="10" r="10" transform="translate(282 398)"/>
          <circle id="Ellipse_6-4" data-name="Ellipse 6" class="cls-1" cx="10" cy="10" r="10" transform="translate(428 318)"/>
          <circle id="Ellipse_12-4" data-name="Ellipse 12" class="cls-1" cx="10" cy="10" r="10" transform="translate(428 358)"/>
          <circle id="Ellipse_18-4" data-name="Ellipse 18" class="cls-1" cx="10" cy="10" r="10" transform="translate(428 398)"/>
        </g>
        <g id="Group_1-4" data-name="Group 1">
          <circle id="Ellipse_23-4" data-name="Ellipse 23" class="cls-1" cx="10" cy="10" r="10" transform="translate(185 438)"/>
          <circle id="Ellipse_22-4" data-name="Ellipse 22" class="cls-1" cx="10" cy="10" r="10" transform="translate(331 438)"/>
          <circle id="Ellipse_21-4" data-name="Ellipse 21" class="cls-1" cx="10" cy="10" r="10" transform="translate(233 438)"/>
          <circle id="Ellipse_20-4" data-name="Ellipse 20" class="cls-1" cx="10" cy="10" r="10" transform="translate(379 438)"/>
          <circle id="Ellipse_19-4" data-name="Ellipse 19" class="cls-1" cx="10" cy="10" r="10" transform="translate(282 438)"/>
          <circle id="Ellipse_24-4" data-name="Ellipse 24" class="cls-1" cx="10" cy="10" r="10" transform="translate(428 438)"/>
        </g>
      </g>
    </g>
    <g id="Group_8" data-name="Group 8" transform="translate(0 313)">
      <g id="Group_3-2" data-name="Group 3">
        <g id="Group_2-5" data-name="Group 2">
          <circle id="Ellipse_1-5" data-name="Ellipse 1" class="cls-1" cx="10" cy="10" r="10" transform="translate(185 318)"/>
          <circle id="Ellipse_11-5" data-name="Ellipse 11" class="cls-1" cx="10" cy="10" r="10" transform="translate(185 358)"/>
          <circle id="Ellipse_17-5" data-name="Ellipse 17" class="cls-1" cx="10" cy="10" r="10" transform="translate(185 398)"/>
          <circle id="Ellipse_5-5" data-name="Ellipse 5" class="cls-1" cx="10" cy="10" r="10" transform="translate(331 318)"/>
          <circle id="Ellipse_10-5" data-name="Ellipse 10" class="cls-1" cx="10" cy="10" r="10" transform="translate(331 358)"/>
          <circle id="Ellipse_16-5" data-name="Ellipse 16" class="cls-1" cx="10" cy="10" r="10" transform="translate(331 398)"/>
          <circle id="Ellipse_2-5" data-name="Ellipse 2" class="cls-1" cx="10" cy="10" r="10" transform="translate(233 318)"/>
          <circle id="Ellipse_9-5" data-name="Ellipse 9" class="cls-1" cx="10" cy="10" r="10" transform="translate(233 358)"/>
          <circle id="Ellipse_15-5" data-name="Ellipse 15" class="cls-1" cx="10" cy="10" r="10" transform="translate(233 398)"/>
          <circle id="Ellipse_4-5" data-name="Ellipse 4" class="cls-1" cx="10" cy="10" r="10" transform="translate(379 318)"/>
          <circle id="Ellipse_8-5" data-name="Ellipse 8" class="cls-1" cx="10" cy="10" r="10" transform="translate(379 358)"/>
          <circle id="Ellipse_14-5" data-name="Ellipse 14" class="cls-1" cx="10" cy="10" r="10" transform="translate(379 398)"/>
          <circle id="Ellipse_3-5" data-name="Ellipse 3" class="cls-1" cx="10" cy="10" r="10" transform="translate(282 318)"/>
          <circle id="Ellipse_7-5" data-name="Ellipse 7" class="cls-1" cx="10" cy="10" r="10" transform="translate(282 358)"/>
          <circle id="Ellipse_13-5" data-name="Ellipse 13" class="cls-1" cx="10" cy="10" r="10" transform="translate(282 398)"/>
          <circle id="Ellipse_6-5" data-name="Ellipse 6" class="cls-1" cx="10" cy="10" r="10" transform="translate(428 318)"/>
          <circle id="Ellipse_12-5" data-name="Ellipse 12" class="cls-1" cx="10" cy="10" r="10" transform="translate(428 358)"/>
          <circle id="Ellipse_18-5" data-name="Ellipse 18" class="cls-1" cx="10" cy="10" r="10" transform="translate(428 398)"/>
        </g>
        <g id="Group_1-5" data-name="Group 1">
          <circle id="Ellipse_23-5" data-name="Ellipse 23" class="cls-1" cx="10" cy="10" r="10" transform="translate(185 438)"/>
          <circle id="Ellipse_22-5" data-name="Ellipse 22" class="cls-1" cx="10" cy="10" r="10" transform="translate(331 438)"/>
          <circle id="Ellipse_21-5" data-name="Ellipse 21" class="cls-1" cx="10" cy="10" r="10" transform="translate(233 438)"/>
          <circle id="Ellipse_20-5" data-name="Ellipse 20" class="cls-1" cx="10" cy="10" r="10" transform="translate(379 438)"/>
          <circle id="Ellipse_19-5" data-name="Ellipse 19" class="cls-1" cx="10" cy="10" r="10" transform="translate(282 438)"/>
          <circle id="Ellipse_24-5" data-name="Ellipse 24" class="cls-1" cx="10" cy="10" r="10" transform="translate(428 438)"/>
        </g>
      </g>
      <g id="Group_5-2" data-name="Group 5" transform="translate(281)">
        <g id="Group_2-6" data-name="Group 2">
          <circle id="Ellipse_1-6" data-name="Ellipse 1" class="cls-1" cx="10" cy="10" r="10" transform="translate(185 318)"/>
          <circle id="Ellipse_11-6" data-name="Ellipse 11" class="cls-1" cx="10" cy="10" r="10" transform="translate(185 358)"/>
          <circle id="Ellipse_17-6" data-name="Ellipse 17" class="cls-1" cx="10" cy="10" r="10" transform="translate(185 398)"/>
          <circle id="Ellipse_5-6" data-name="Ellipse 5" class="cls-1" cx="10" cy="10" r="10" transform="translate(331 318)"/>
          <circle id="Ellipse_10-6" data-name="Ellipse 10" class="cls-1" cx="10" cy="10" r="10" transform="translate(331 358)"/>
          <circle id="Ellipse_16-6" data-name="Ellipse 16" class="cls-1" cx="10" cy="10" r="10" transform="translate(331 398)"/>
          <circle id="Ellipse_2-6" data-name="Ellipse 2" class="cls-1" cx="10" cy="10" r="10" transform="translate(233 318)"/>
          <circle id="Ellipse_9-6" data-name="Ellipse 9" class="cls-1" cx="10" cy="10" r="10" transform="translate(233 358)"/>
          <circle id="Ellipse_15-6" data-name="Ellipse 15" class="cls-1" cx="10" cy="10" r="10" transform="translate(233 398)"/>
          <circle id="Ellipse_4-6" data-name="Ellipse 4" class="cls-1" cx="10" cy="10" r="10" transform="translate(379 318)"/>
          <circle id="Ellipse_8-6" data-name="Ellipse 8" class="cls-1" cx="10" cy="10" r="10" transform="translate(379 358)"/>
          <circle id="Ellipse_14-6" data-name="Ellipse 14" class="cls-1" cx="10" cy="10" r="10" transform="translate(379 398)"/>
          <circle id="Ellipse_3-6" data-name="Ellipse 3" class="cls-1" cx="10" cy="10" r="10" transform="translate(282 318)"/>
          <circle id="Ellipse_7-6" data-name="Ellipse 7" class="cls-1" cx="10" cy="10" r="10" transform="translate(282 358)"/>
          <circle id="Ellipse_13-6" data-name="Ellipse 13" class="cls-1" cx="10" cy="10" r="10" transform="translate(282 398)"/>
          <circle id="Ellipse_6-6" data-name="Ellipse 6" class="cls-1" cx="10" cy="10" r="10" transform="translate(428 318)"/>
          <circle id="Ellipse_12-6" data-name="Ellipse 12" class="cls-1" cx="10" cy="10" r="10" transform="translate(428 358)"/>
          <circle id="Ellipse_18-6" data-name="Ellipse 18" class="cls-1" cx="10" cy="10" r="10" transform="translate(428 398)"/>
        </g>
        <g id="Group_1-6" data-name="Group 1">
          <circle id="Ellipse_23-6" data-name="Ellipse 23" class="cls-1" cx="10" cy="10" r="10" transform="translate(185 438)"/>
          <circle id="Ellipse_22-6" data-name="Ellipse 22" class="cls-1" cx="10" cy="10" r="10" transform="translate(331 438)"/>
          <circle id="Ellipse_21-6" data-name="Ellipse 21" class="cls-1" cx="10" cy="10" r="10" transform="translate(233 438)"/>
          <circle id="Ellipse_20-6" data-name="Ellipse 20" class="cls-1" cx="10" cy="10" r="10" transform="translate(379 438)"/>
          <circle id="Ellipse_19-6" data-name="Ellipse 19" class="cls-1" cx="10" cy="10" r="10" transform="translate(282 438)"/>
          <circle id="Ellipse_24-6" data-name="Ellipse 24" class="cls-1" cx="10" cy="10" r="10" transform="translate(428 438)"/>
        </g>
      </g>
      <g id="Group_4-2" data-name="Group 4" transform="translate(281 152)">
        <g id="Group_2-7" data-name="Group 2">
          <circle id="Ellipse_1-7" data-name="Ellipse 1" class="cls-1" cx="10" cy="10" r="10" transform="translate(185 318)"/>
          <circle id="Ellipse_11-7" data-name="Ellipse 11" class="cls-1" cx="10" cy="10" r="10" transform="translate(185 358)"/>
          <circle id="Ellipse_17-7" data-name="Ellipse 17" class="cls-1" cx="10" cy="10" r="10" transform="translate(185 398)"/>
          <circle id="Ellipse_5-7" data-name="Ellipse 5" class="cls-1" cx="10" cy="10" r="10" transform="translate(331 318)"/>
          <circle id="Ellipse_10-7" data-name="Ellipse 10" class="cls-1" cx="10" cy="10" r="10" transform="translate(331 358)"/>
          <circle id="Ellipse_16-7" data-name="Ellipse 16" class="cls-1" cx="10" cy="10" r="10" transform="translate(331 398)"/>
          <circle id="Ellipse_2-7" data-name="Ellipse 2" class="cls-1" cx="10" cy="10" r="10" transform="translate(233 318)"/>
          <circle id="Ellipse_9-7" data-name="Ellipse 9" class="cls-1" cx="10" cy="10" r="10" transform="translate(233 358)"/>
          <circle id="Ellipse_15-7" data-name="Ellipse 15" class="cls-1" cx="10" cy="10" r="10" transform="translate(233 398)"/>
          <circle id="Ellipse_4-7" data-name="Ellipse 4" class="cls-1" cx="10" cy="10" r="10" transform="translate(379 318)"/>
          <circle id="Ellipse_8-7" data-name="Ellipse 8" class="cls-1" cx="10" cy="10" r="10" transform="translate(379 358)"/>
          <circle id="Ellipse_14-7" data-name="Ellipse 14" class="cls-1" cx="10" cy="10" r="10" transform="translate(379 398)"/>
          <circle id="Ellipse_3-7" data-name="Ellipse 3" class="cls-1" cx="10" cy="10" r="10" transform="translate(282 318)"/>
          <circle id="Ellipse_7-7" data-name="Ellipse 7" class="cls-1" cx="10" cy="10" r="10" transform="translate(282 358)"/>
          <circle id="Ellipse_13-7" data-name="Ellipse 13" class="cls-1" cx="10" cy="10" r="10" transform="translate(282 398)"/>
          <circle id="Ellipse_6-7" data-name="Ellipse 6" class="cls-1" cx="10" cy="10" r="10" transform="translate(428 318)"/>
          <circle id="Ellipse_12-7" data-name="Ellipse 12" class="cls-1" cx="10" cy="10" r="10" transform="translate(428 358)"/>
          <circle id="Ellipse_18-7" data-name="Ellipse 18" class="cls-1" cx="10" cy="10" r="10" transform="translate(428 398)"/>
        </g>
        <g id="Group_1-7" data-name="Group 1">
          <circle id="Ellipse_23-7" data-name="Ellipse 23" class="cls-1" cx="10" cy="10" r="10" transform="translate(185 438)"/>
          <circle id="Ellipse_22-7" data-name="Ellipse 22" class="cls-1" cx="10" cy="10" r="10" transform="translate(331 438)"/>
          <circle id="Ellipse_21-7" data-name="Ellipse 21" class="cls-1" cx="10" cy="10" r="10" transform="translate(233 438)"/>
          <circle id="Ellipse_20-7" data-name="Ellipse 20" class="cls-1" cx="10" cy="10" r="10" transform="translate(379 438)"/>
          <circle id="Ellipse_19-7" data-name="Ellipse 19" class="cls-1" cx="10" cy="10" r="10" transform="translate(282 438)"/>
          <circle id="Ellipse_24-7" data-name="Ellipse 24" class="cls-1" cx="10" cy="10" r="10" transform="translate(428 438)"/>
        </g>
      </g>
      <g id="Group_6-2" data-name="Group 6" transform="translate(0 152)">
        <g id="Group_2-8" data-name="Group 2">
          <circle id="Ellipse_1-8" data-name="Ellipse 1" class="cls-1" cx="10" cy="10" r="10" transform="translate(185 318)"/>
          <circle id="Ellipse_11-8" data-name="Ellipse 11" class="cls-1" cx="10" cy="10" r="10" transform="translate(185 358)"/>
          <circle id="Ellipse_17-8" data-name="Ellipse 17" class="cls-1" cx="10" cy="10" r="10" transform="translate(185 398)"/>
          <circle id="Ellipse_5-8" data-name="Ellipse 5" class="cls-1" cx="10" cy="10" r="10" transform="translate(331 318)"/>
          <circle id="Ellipse_10-8" data-name="Ellipse 10" class="cls-1" cx="10" cy="10" r="10" transform="translate(331 358)"/>
          <circle id="Ellipse_16-8" data-name="Ellipse 16" class="cls-1" cx="10" cy="10" r="10" transform="translate(331 398)"/>
          <circle id="Ellipse_2-8" data-name="Ellipse 2" class="cls-1" cx="10" cy="10" r="10" transform="translate(233 318)"/>
          <circle id="Ellipse_9-8" data-name="Ellipse 9" class="cls-1" cx="10" cy="10" r="10" transform="translate(233 358)"/>
          <circle id="Ellipse_15-8" data-name="Ellipse 15" class="cls-1" cx="10" cy="10" r="10" transform="translate(233 398)"/>
          <circle id="Ellipse_4-8" data-name="Ellipse 4" class="cls-1" cx="10" cy="10" r="10" transform="translate(379 318)"/>
          <circle id="Ellipse_8-8" data-name="Ellipse 8" class="cls-1" cx="10" cy="10" r="10" transform="translate(379 358)"/>
          <circle id="Ellipse_14-8" data-name="Ellipse 14" class="cls-1" cx="10" cy="10" r="10" transform="translate(379 398)"/>
          <circle id="Ellipse_3-8" data-name="Ellipse 3" class="cls-1" cx="10" cy="10" r="10" transform="translate(282 318)"/>
          <circle id="Ellipse_7-8" data-name="Ellipse 7" class="cls-1" cx="10" cy="10" r="10" transform="translate(282 358)"/>
          <circle id="Ellipse_13-8" data-name="Ellipse 13" class="cls-1" cx="10" cy="10" r="10" transform="translate(282 398)"/>
          <circle id="Ellipse_6-8" data-name="Ellipse 6" class="cls-1" cx="10" cy="10" r="10" transform="translate(428 318)"/>
          <circle id="Ellipse_12-8" data-name="Ellipse 12" class="cls-1" cx="10" cy="10" r="10" transform="translate(428 358)"/>
          <circle id="Ellipse_18-8" data-name="Ellipse 18" class="cls-1" cx="10" cy="10" r="10" transform="translate(428 398)"/>
        </g>
        <g id="Group_1-8" data-name="Group 1">
          <circle id="Ellipse_23-8" data-name="Ellipse 23" class="cls-1" cx="10" cy="10" r="10" transform="translate(185 438)"/>
          <circle id="Ellipse_22-8" data-name="Ellipse 22" class="cls-1" cx="10" cy="10" r="10" transform="translate(331 438)"/>
          <circle id="Ellipse_21-8" data-name="Ellipse 21" class="cls-1" cx="10" cy="10" r="10" transform="translate(233 438)"/>
          <circle id="Ellipse_20-8" data-name="Ellipse 20" class="cls-1" cx="10" cy="10" r="10" transform="translate(379 438)"/>
          <circle id="Ellipse_19-8" data-name="Ellipse 19" class="cls-1" cx="10" cy="10" r="10" transform="translate(282 438)"/>
          <circle id="Ellipse_24-8" data-name="Ellipse 24" class="cls-1" cx="10" cy="10" r="10" transform="translate(428 438)"/>
        </g>
      </g>
    </g>
  </g>
</svg>
